<svg width="14" height="14" viewBox="0 0 14 14" fill="none" xmlns="http://www.w3.org/2000/svg">
<path d="M7 14C3.1386 14 0 10.8614 0 7C0 3.1386 3.1386 0 7 0C10.8614 0 14 3.1386 14 7C14 10.8614 10.8614 14 7 14ZM7 0.976744C3.67907 0.976744 0.976744 3.67907 0.976744 7C0.976744 10.3209 3.67907 13.0233 7 13.0233C10.3209 13.0233 13.0233 10.3209 13.0233 7C13.0233 3.67907 10.3209 0.976744 7 0.976744Z" fill="white"/>
<path d="M7.15642 10.0933C5.45039 10.0933 4.06342 8.7063 4.06342 7.00025C4.06342 5.2942 5.45039 3.90723 7.15642 3.90723C7.90526 3.90723 8.63456 4.18071 9.19456 4.68211C9.39642 4.85792 9.41595 5.17048 9.24014 5.37234C9.06433 5.5742 8.75177 5.59374 8.54991 5.41793C8.16572 5.07933 7.67084 4.89049 7.15642 4.89049C5.99084 4.89049 5.04016 5.84118 5.04016 7.00676C5.04016 8.17234 5.99084 9.12304 7.15642 9.12304C7.66433 9.12304 8.16572 8.9342 8.54991 8.5956C8.75177 8.41978 9.06433 8.43932 9.24014 8.64118C9.41595 8.84304 9.39642 9.1556 9.19456 9.33141C8.62805 9.81978 7.90526 10.0933 7.15642 10.0933Z" fill="white"/>
</svg>
