<svg width="129" height="129" viewBox="0 0 129 129" fill="none" xmlns="http://www.w3.org/2000/svg">
<path d="M114.375 128.625H14.625C6.75494 128.625 0.375 122.245 0.375 114.375V14.625C0.375 6.75494 6.75494 0.375 14.625 0.375H114.375C122.245 0.375 128.625 6.75494 128.625 14.625V114.375C128.625 122.245 122.245 128.625 114.375 128.625ZM14.625 14.625V114.375H114.375V14.625H14.625ZM107.25 100.125H21.75L43.125 71.625L50.25 78.75L71.625 50.25L107.25 100.125ZM39.5625 57.375C33.66 57.375 28.875 52.59 28.875 46.6875C28.875 40.785 33.66 36 39.5625 36C45.465 36 50.25 40.785 50.25 46.6875C50.25 52.59 45.465 57.375 39.5625 57.375Z" fill="#CAECFF"/>
</svg>
