<svg width="23" height="23" viewBox="0 0 23 23" fill="none" xmlns="http://www.w3.org/2000/svg">
<path d="M21.0497 10.5014H12.8235V2.27532C12.8235 1.9117 12.6791 1.56298 12.422 1.30586C12.1649 1.04874 11.8161 0.904297 11.4525 0.904297C11.0889 0.904297 10.7402 1.04874 10.4831 1.30586C10.226 1.56298 10.0815 1.9117 10.0815 2.27532V10.5014H1.85539C1.49178 10.5014 1.14305 10.6459 0.885938 10.903C0.628822 11.1601 0.484375 11.5088 0.484375 11.8725C0.484375 12.2361 0.628822 12.5848 0.885938 12.8419C1.14305 13.099 1.49178 13.2435 1.85539 13.2435H10.0815V21.4696C10.0815 21.8332 10.226 22.1819 10.4831 22.439C10.7402 22.6962 11.0889 22.8406 11.4525 22.8406C11.8161 22.8406 12.1649 22.6962 12.422 22.439C12.6791 22.1819 12.8235 21.8332 12.8235 21.4696V13.2435H21.0497C21.4133 13.2435 21.762 13.099 22.0191 12.8419C22.2762 12.5848 22.4207 12.2361 22.4207 11.8725C22.4207 11.5088 22.2762 11.1601 22.0191 10.903C21.762 10.6459 21.4133 10.5014 21.0497 10.5014Z" fill="white"/>
</svg>
