<svg width="38" height="39" viewBox="0 0 38 39" fill="none" xmlns="http://www.w3.org/2000/svg">
<path d="M22.0096 38.2026H15.0567C14.1592 38.2026 13.3826 37.578 13.1905 36.7013L12.4131 33.1026C11.376 32.6482 10.3926 32.0799 9.48104 31.4083L5.97213 32.5257C5.11639 32.7986 4.18613 32.4384 3.73728 31.6604L0.253198 25.6416C-0.19074 24.8632 -0.0377944 23.8814 0.621853 23.2749L3.34379 20.7918C3.22001 19.6669 3.22001 18.5319 3.34379 17.407L0.621853 14.9296C-0.038766 14.3229 -0.191772 13.3398 0.253198 12.561L3.72964 6.53838C4.17849 5.76038 5.10875 5.4002 5.96449 5.67309L9.4734 6.79051C9.93959 6.44508 10.4249 6.12622 10.927 5.83545C11.409 5.56363 11.9051 5.31751 12.4131 5.09814L13.1924 1.50327C13.3836 0.626463 14.1593 0.000944355 15.0567 0H22.0096C22.907 0.000944355 23.6827 0.626463 23.8739 1.50327L24.6608 5.10005C25.1972 5.33598 25.7195 5.60257 26.2252 5.89848C26.6969 6.17127 27.1529 6.47036 27.591 6.79433L31.1018 5.67691C31.957 5.40504 32.8861 5.76508 33.3348 6.5422L36.8112 12.5648C37.2551 13.3432 37.1022 14.3251 36.4425 14.9315L33.7206 17.4147C33.8444 18.5395 33.8444 19.6746 33.7206 20.7994L36.4425 23.2826C37.1022 23.889 37.2551 24.8709 36.8112 25.6492L33.3348 31.6719C32.8861 32.449 31.957 32.809 31.1018 32.5372L27.591 31.4197C27.1467 31.7469 26.6851 32.0498 26.2081 32.3271C25.7073 32.6172 25.1907 32.8793 24.6608 33.1121L23.8739 36.7013C23.682 37.5773 22.9064 38.2019 22.0096 38.2026ZM10.1668 27.1793L11.7331 28.3253C12.0862 28.5854 12.4542 28.8246 12.8352 29.0416C13.1938 29.2493 13.5629 29.438 13.9412 29.607L15.7233 30.3883L16.5963 34.3824H20.4738L21.3468 30.3864L23.1289 29.6051C23.9069 29.262 24.6454 28.8355 25.3313 28.333L26.8995 27.1869L30.7981 28.4285L32.7369 25.0705L29.7131 22.3141L29.9271 20.3811C30.0211 19.5356 30.0211 18.6823 29.9271 17.8368L29.7131 15.9037L32.7388 13.1417L30.7981 9.78178L26.8995 11.0234L25.3313 9.87729C24.6452 9.37246 23.9068 8.94276 23.1289 8.59559L21.3468 7.81435L20.4738 3.82026H16.5963L15.7195 7.81625L13.9412 8.59559C13.5626 8.76185 13.1934 8.94869 12.8352 9.15526C12.4565 9.37173 12.0905 9.60961 11.7388 9.86774L10.1706 11.0138L6.27393 9.77223L4.33133 13.1417L7.35506 15.8942L7.14113 17.8292C7.04716 18.6747 7.04716 19.528 7.14113 20.3735L7.35506 22.3065L4.33133 25.0628L6.27011 28.4208L10.1668 27.1793ZM18.5255 26.7418C14.3058 26.7418 10.885 23.3211 10.885 19.1013C10.885 14.8816 14.3058 11.4608 18.5255 11.4608C22.7453 11.4608 26.166 14.8816 26.166 19.1013C26.1608 23.3189 22.7431 26.7366 18.5255 26.7418ZM18.5255 15.281C16.4385 15.2832 14.7394 16.9598 14.7095 19.0466C14.6796 21.1334 16.3299 22.858 18.416 22.9199C20.5021 22.9818 22.2519 21.3581 22.3458 19.2732V20.0373V19.1013C22.3458 16.9914 20.6354 15.281 18.5255 15.281Z" fill="#F2F2F2"/>
</svg>
