<svg width="20" height="20" viewBox="0 0 20 20" fill="none" xmlns="http://www.w3.org/2000/svg">
<path d="M9.59518 1.91905C11.631 1.91905 13.5835 2.72779 15.0231 4.16736C16.4626 5.60692 17.2714 7.55939 17.2714 9.59525C17.2714 11.6311 16.4626 13.5836 15.0231 15.0231C13.5835 16.4627 11.631 17.2714 9.59518 17.2714C7.55933 17.2714 5.60685 16.4627 4.16729 15.0231C2.72772 13.5836 1.91898 11.6311 1.91898 9.59525C1.91898 7.55939 2.72772 5.60692 4.16729 4.16736C5.60685 2.72779 7.55933 1.91905 9.59518 1.91905ZM19.1904 9.59525C19.1904 4.29579 14.8946 0 9.59518 0C4.29572 0 -6.86646e-05 4.29579 -6.86646e-05 9.59525C-6.86646e-05 14.8947 4.29572 19.1905 9.59518 19.1905C14.8946 19.1905 19.1904 14.8947 19.1904 9.59525Z" fill="#F75757"/>
<path d="M9.59489 11.5146C9.84937 11.5146 10.0934 11.4135 10.2734 11.2335C10.4533 11.0536 10.5544 10.8095 10.5544 10.5551V4.7979C10.5544 4.54342 10.4533 4.29936 10.2734 4.11942C10.0934 3.93947 9.84937 3.83838 9.59489 3.83838C9.34041 3.83838 9.09635 3.93947 8.91641 4.11942C8.73646 4.29936 8.63537 4.54342 8.63537 4.7979V10.5551C8.63537 10.8095 8.73646 11.0536 8.91641 11.2335C9.09635 11.4135 9.34041 11.5146 9.59489 11.5146ZM11.0342 13.9134C11.0342 13.5317 10.8825 13.1656 10.6126 12.8957C10.3427 12.6257 9.97662 12.4741 9.59489 12.4741C9.21317 12.4741 8.84708 12.6257 8.57716 12.8957C8.30724 13.1656 8.15561 13.5317 8.15561 13.9134C8.15561 14.2951 8.30724 14.6612 8.57716 14.9311C8.84708 15.201 9.21317 15.3527 9.59489 15.3527C9.97662 15.3527 10.3427 15.201 10.6126 14.9311C10.8825 14.6612 11.0342 14.2951 11.0342 13.9134Z" fill="#F75757"/>
</svg>
